<svg width="16" height="16" viewBox="0 0 16 16" fill="none" xmlns="http://www.w3.org/2000/svg">
<path d="M1.33301 7.99992H14.6663M1.33301 7.99992C1.33301 11.6818 4.31778 14.6666 7.99967 14.6666M1.33301 7.99992C1.33301 4.31802 4.31778 1.33325 7.99967 1.33325M14.6663 7.99992C14.6663 11.6818 11.6816 14.6666 7.99967 14.6666M14.6663 7.99992C14.6663 4.31802 11.6816 1.33325 7.99967 1.33325M7.99967 1.33325C9.66719 3.15882 10.6148 5.52794 10.6663 7.99992C10.6148 10.4719 9.66719 12.841 7.99967 14.6666M7.99967 1.33325C6.33215 3.15882 5.38451 5.52794 5.33301 7.99992C5.38451 10.4719 6.33215 12.841 7.99967 14.6666" stroke="white" stroke-width="1.16667" stroke-linecap="round" stroke-linejoin="round"/>
</svg>
