<svg width="12" height="16" viewBox="0 0 12 16" fill="none" xmlns="http://www.w3.org/2000/svg">
<path d="M3.99967 12.3333H7.99967M2.39967 1.33325H9.59967C9.97304 1.33325 10.1597 1.33325 10.3023 1.40591C10.4278 1.46983 10.5298 1.57182 10.5937 1.69726C10.6663 1.83987 10.6663 2.02655 10.6663 2.39992V3.78293C10.6663 4.10905 10.6663 4.27211 10.6295 4.42556C10.5968 4.56161 10.543 4.69167 10.4699 4.81097C10.3874 4.94552 10.2721 5.06082 10.0415 5.29142L8.08725 7.24567C7.82324 7.50968 7.69124 7.64169 7.64178 7.79391C7.59827 7.9278 7.59827 8.07203 7.64178 8.20593C7.69124 8.35815 7.82324 8.49015 8.08725 8.75416L10.0415 10.7084C10.2721 10.939 10.3874 11.0543 10.4699 11.1889C10.543 11.3082 10.5968 11.4382 10.6295 11.5743C10.6663 11.7277 10.6663 11.8908 10.6663 12.2169V13.5999C10.6663 13.9733 10.6663 14.16 10.5937 14.3026C10.5298 14.428 10.4278 14.53 10.3023 14.5939C10.1597 14.6666 9.97304 14.6666 9.59967 14.6666H2.39967C2.02631 14.6666 1.83962 14.6666 1.69701 14.5939C1.57157 14.53 1.46959 14.428 1.40567 14.3026C1.33301 14.16 1.33301 13.9733 1.33301 13.5999V12.2169C1.33301 11.8908 1.33301 11.7277 1.36985 11.5743C1.40251 11.4382 1.45638 11.3082 1.52949 11.1889C1.61194 11.0543 1.72724 10.939 1.95785 10.7084L3.91209 8.75416C4.17611 8.49015 4.30811 8.35815 4.35757 8.20593C4.40107 8.07203 4.40107 7.9278 4.35757 7.79391C4.30811 7.64169 4.1761 7.50968 3.91209 7.24567L1.95785 5.29142C1.72725 5.06082 1.61194 4.94552 1.52949 4.81097C1.45638 4.69167 1.40251 4.56161 1.36985 4.42556C1.33301 4.27211 1.33301 4.10905 1.33301 3.78293V2.39992C1.33301 2.02655 1.33301 1.83987 1.40567 1.69726C1.46959 1.57182 1.57157 1.46983 1.69701 1.40591C1.83962 1.33325 2.02631 1.33325 2.39967 1.33325Z" stroke="white" stroke-width="1.33333" stroke-linecap="round" stroke-linejoin="round"/>
</svg>
