<svg width="16" height="16" viewBox="0 0 16 16" fill="none" xmlns="http://www.w3.org/2000/svg">
<path d="M7.99967 14.6666C11.6816 14.6666 14.6663 11.6818 14.6663 7.99992C14.6663 4.31802 11.6816 1.33325 7.99967 1.33325C4.31778 1.33325 1.33301 4.31802 1.33301 7.99992C1.33301 11.6818 4.31778 14.6666 7.99967 14.6666Z" stroke="white" stroke-width="1.33333" stroke-linecap="round" stroke-linejoin="round"/>
<path d="M6.33301 5.97681C6.33301 5.65862 6.33301 5.49952 6.3995 5.4107C6.45745 5.3333 6.54615 5.28488 6.64259 5.27799C6.75326 5.27008 6.88709 5.35611 7.15474 5.52818L10.3018 7.55129C10.5341 7.7006 10.6502 7.77525 10.6903 7.87018C10.7253 7.95312 10.7253 8.04672 10.6903 8.12966C10.6502 8.22458 10.5341 8.29924 10.3018 8.44855L7.15475 10.4717C6.88709 10.6437 6.75326 10.7298 6.64259 10.7218C6.54615 10.715 6.45745 10.6665 6.3995 10.5891C6.33301 10.5003 6.33301 10.3412 6.33301 10.023V5.97681Z" stroke="white" stroke-width="1.33333" stroke-linecap="round" stroke-linejoin="round"/>
</svg>
