<svg width="16" height="14" viewBox="0 0 16 14" fill="none" xmlns="http://www.w3.org/2000/svg">
<path d="M7.07639 1.59439L7.65334 1.92842L7.07639 1.59439ZM1.59313 11.0655L2.17008 11.3995L2.17008 11.3995L1.59313 11.0655ZM14.4059 11.0655L14.9828 10.7314V10.7314L14.4059 11.0655ZM8.92263 1.59439L9.49958 1.26037V1.26037L8.92263 1.59439ZM14.5686 12.5391L14.1765 11.9999L14.1765 11.9999L14.5686 12.5391ZM14.8396 12.069L15.5027 12.1382V12.1382L14.8396 12.069ZM1.1594 12.069L0.49633 12.1382L1.1594 12.069ZM1.43043 12.5391L1.82248 11.9999L1.82248 11.9999L1.43043 12.5391ZM7.72865 0.721325L7.99951 1.33049L7.99951 1.33048L7.72865 0.721325ZM8.27038 0.721325L8.54124 0.112165L8.54124 0.112165L8.27038 0.721325ZM7.43723 9.30867C7.23956 9.6193 7.33113 10.0314 7.64176 10.229C7.95239 10.4267 8.36444 10.3351 8.56212 10.0245L7.99967 9.66659L7.43723 9.30867ZM13.2288 2.69117C13.4265 2.38054 13.3349 1.96848 13.0243 1.77081C12.7136 1.57314 12.3016 1.66471 12.1039 1.97534L12.6663 2.33325L13.2288 2.69117ZM2.4502 8.99992C2.08201 8.99992 1.78353 9.2984 1.78353 9.66659C1.78353 10.0348 2.08201 10.3333 2.4502 10.3333V9.66659V8.99992ZM13.5857 10.3333C13.9539 10.3333 14.2523 10.0348 14.2523 9.66659C14.2523 9.2984 13.9539 8.99992 13.5857 8.99992V9.66659V10.3333ZM7.07639 1.59439L6.49944 1.26037L1.01618 10.7314L1.59313 11.0655L2.17008 11.3995L7.65334 1.92842L7.07639 1.59439ZM2.51625 12.6666V13.3332H13.4828V12.6666V11.9999H2.51625V12.6666ZM14.4059 11.0655L14.9828 10.7314L9.49958 1.26037L8.92263 1.59439L8.34568 1.92841L13.8289 11.3995L14.4059 11.0655ZM13.4828 12.6666V13.3332C13.7731 13.3332 14.0371 13.3339 14.2485 13.3145C14.4563 13.2955 14.7243 13.2502 14.9606 13.0783L14.5686 12.5391L14.1765 11.9999C14.2376 11.9555 14.2662 11.974 14.1267 11.9868C13.9907 11.9992 13.7994 11.9999 13.4828 11.9999V12.6666ZM14.4059 11.0655L13.8289 11.3995C13.9876 11.6735 14.0828 11.8394 14.1402 11.9633C14.199 12.0905 14.1687 12.075 14.1765 11.9999L14.8396 12.069L15.5027 12.1382C15.533 11.8475 15.4379 11.5929 15.3503 11.4035C15.2612 11.2109 15.1283 10.9827 14.9828 10.7314L14.4059 11.0655ZM14.5686 12.5391L14.9606 13.0783C15.2665 12.856 15.4635 12.5142 15.5027 12.1382L14.8396 12.069L14.1765 11.9999L14.1765 11.9999L14.5686 12.5391ZM1.59313 11.0655L1.01618 10.7314C0.8707 10.9827 0.737851 11.2109 0.648734 11.4035C0.561101 11.5929 0.466031 11.8475 0.49633 12.1382L1.1594 12.069L1.82248 11.9999C1.8303 12.075 1.80003 12.0905 1.85884 11.9633C1.91618 11.8394 2.01143 11.6735 2.17008 11.3995L1.59313 11.0655ZM2.51625 12.6666V11.9999C2.1996 11.9999 2.00833 11.9992 1.87236 11.9868C1.73286 11.974 1.76145 11.9555 1.82248 11.9999L1.43043 12.5391L1.03837 13.0783C1.2747 13.2502 1.5427 13.2955 1.75054 13.3145C1.9619 13.3339 2.22589 13.3332 2.51625 13.3332V12.6666ZM1.1594 12.069L0.49633 12.1382C0.535538 12.5142 0.732565 12.856 1.03838 13.0783L1.43043 12.5391L1.82248 11.9999L1.82248 11.9999L1.1594 12.069ZM7.07639 1.59439L7.65334 1.92842C7.81145 1.65532 7.90745 1.49083 7.98605 1.37987C8.06659 1.26615 8.06818 1.29995 7.99951 1.33049L7.72865 0.721325L7.45778 0.112165C7.19143 0.2306 7.0184 0.439212 6.898 0.609195C6.77566 0.781928 6.64438 1.01002 6.49944 1.26037L7.07639 1.59439ZM8.92263 1.59439L9.49958 1.26037C9.35464 1.01001 9.22337 0.781926 9.10102 0.609194C8.98062 0.439211 8.8076 0.2306 8.54124 0.112165L8.27038 0.721325L7.99951 1.33048C7.93085 1.29995 7.93243 1.26615 8.01297 1.37987C8.09157 1.49083 8.18758 1.65532 8.34568 1.92841L8.92263 1.59439ZM7.72865 0.721325L7.99951 1.33048V1.33049L8.27038 0.721325L8.54124 0.112165C8.19637 -0.0411859 7.80266 -0.0411863 7.45778 0.112165L7.72865 0.721325ZM7.99967 9.66659L8.56212 10.0245L13.2288 2.69117L12.6663 2.33325L12.1039 1.97534L7.43723 9.30867L7.99967 9.66659ZM2.4502 9.66659V10.3333H13.5857V9.66659V8.99992H2.4502V9.66659Z" fill="white"/>
</svg>
