<svg width="14" height="14" viewBox="0 0 14 14" fill="none" xmlns="http://www.w3.org/2000/svg">
<path d="M5 10.8698V3.1067C5 2.78568 5 2.62517 5.0584 2.49498C5.10988 2.38022 5.19278 2.28237 5.29751 2.21272C5.41632 2.13371 5.57465 2.10733 5.89131 2.05455L11.758 1.07677C12.1853 1.00555 12.3989 0.969943 12.5655 1.03179C12.7116 1.08606 12.8341 1.18982 12.9116 1.32503C13 1.47911 13 1.69572 13 2.12892V9.53643M5 10.8698C5 11.9743 4.10457 12.8698 3 12.8698C1.89543 12.8698 1 11.9743 1 10.8698C1 9.7652 1.89543 8.86977 3 8.86977C4.10457 8.86977 5 9.7652 5 10.8698ZM13 9.53643C13 10.641 12.1046 11.5364 11 11.5364C9.89543 11.5364 9 10.641 9 9.53643C9 8.43186 9.89543 7.53643 11 7.53643C12.1046 7.53643 13 8.43186 13 9.53643Z" stroke="white" stroke-width="1.33333" stroke-linecap="round" stroke-linejoin="round"/>
</svg>
