<svg width="16" height="14" viewBox="0 0 16 14" fill="none" xmlns="http://www.w3.org/2000/svg">
<path d="M7.99967 13.3333L7.93297 13.2332C7.46988 12.5386 7.23833 12.1912 6.93241 11.9398C6.66158 11.7172 6.34952 11.5502 6.01408 11.4483C5.63517 11.3333 5.21775 11.3333 4.38289 11.3333H3.46634C2.7196 11.3333 2.34624 11.3333 2.06102 11.1879C1.81014 11.0601 1.60616 10.8561 1.47833 10.6052C1.33301 10.32 1.33301 9.94666 1.33301 9.19992V3.46659C1.33301 2.71985 1.33301 2.34648 1.47833 2.06126C1.60616 1.81038 1.81014 1.60641 2.06102 1.47858C2.34624 1.33325 2.7196 1.33325 3.46634 1.33325H3.73301C5.22648 1.33325 5.97322 1.33325 6.54365 1.6239C7.04541 1.87956 7.45336 2.28751 7.70902 2.78928C7.99967 3.35971 7.99967 4.10645 7.99967 5.59992M7.99967 13.3333V5.59992M7.99967 13.3333L8.06638 13.2332C8.52947 12.5386 8.76102 12.1912 9.06694 11.9398C9.33777 11.7172 9.64983 11.5502 9.98527 11.4483C10.3642 11.3333 10.7816 11.3333 11.6165 11.3333H12.533C13.2797 11.3333 13.6531 11.3333 13.9383 11.1879C14.1892 11.0601 14.3932 10.8561 14.521 10.6052C14.6663 10.32 14.6663 9.94666 14.6663 9.19992V3.46659C14.6663 2.71985 14.6663 2.34648 14.521 2.06126C14.3932 1.81038 14.1892 1.60641 13.9383 1.47858C13.6531 1.33325 13.2797 1.33325 12.533 1.33325H12.2663C10.7729 1.33325 10.0261 1.33325 9.4557 1.6239C8.95393 1.87956 8.54599 2.28751 8.29032 2.78928C7.99967 3.35971 7.99967 4.10645 7.99967 5.59992" stroke="white" stroke-width="1.33333" stroke-linecap="round" stroke-linejoin="round"/>
</svg>
